<svg width="226" height="27" viewBox="0 0 226 27" fill="none" xmlns="http://www.w3.org/2000/svg">
<path d="M15.4684 15.8478H5.85366V26.8522H0.708282V0.561928H5.85366V11.2658H15.4684V0.561928H20.6138V26.8522H15.4684V15.8478Z" fill="#F93737"/>
<path d="M25.172 0.561928H40.7584V5.14394H30.3174V11.2658H31.8653V15.8478H30.3174V22.2702H40.9462V26.8522H25.172V0.561928Z" fill="#F93737"/>
<path d="M41.2177 11.0766L41.345 9.37946H41.2601L40.3479 11.119L33.1777 21.1318H32.1382V6.28226H33.899V16.4648L33.7505 18.1407H33.8353L34.7687 16.4012L41.939 6.28226H42.9784V21.1318H41.2177V11.0766Z" fill="#59606D"/>
<path d="M55.4662 14.3223H48.3384V21.1318H46.5776V6.28226H48.3384V12.7524H55.4662V6.28226H57.2269V21.1318H55.4662V14.3223Z" fill="#59606D"/>
<path d="M70.4192 7.85207H65.7946V21.1318H64.0338V7.85207H59.4093V6.28226H70.4192V7.85207Z" fill="#59606D"/>
<path d="M72.5975 6.28226H80.68V7.85207H74.3583V12.71H80.1496V14.2798H74.3583V19.562H80.786V21.1318H72.5975V6.28226Z" fill="#59606D"/>
<path d="M83.9709 6.43076C84.5083 6.30348 85.0882 6.21862 85.7104 6.17619C86.3327 6.13377 86.9479 6.11255 87.556 6.11255C88.2066 6.11255 88.8642 6.17619 89.5289 6.30347C90.2077 6.43076 90.8229 6.66411 91.3745 7.00353C91.926 7.34295 92.3715 7.80965 92.7109 8.40363C93.0645 8.99761 93.2413 9.75424 93.2413 10.6735C93.2413 11.5786 93.0787 12.3423 92.7534 12.9646C92.4281 13.5868 91.9968 14.096 91.4593 14.492C90.9219 14.8738 90.3067 15.1496 89.6137 15.3193C88.9208 15.489 88.2066 15.5739 87.4712 15.5739C87.4005 15.5739 87.2802 15.5739 87.1105 15.5739C86.955 15.5739 86.7853 15.5739 86.6014 15.5739C86.4317 15.5597 86.262 15.5456 86.0923 15.5314C85.9226 15.5173 85.8024 15.5031 85.7316 15.489V21.1318H83.9709V6.43076ZM87.5984 7.63994C87.2307 7.63994 86.8772 7.64701 86.5378 7.66115C86.1983 7.67529 85.9296 7.71065 85.7316 7.76722V13.9192C85.8024 13.9475 85.9155 13.9687 86.0711 13.9828C86.2266 13.9828 86.3893 13.9899 86.559 14.004C86.7287 14.004 86.8913 14.004 87.0469 14.004C87.2025 14.004 87.3156 14.004 87.3863 14.004C87.8672 14.004 88.3409 13.9616 88.8076 13.8768C89.2885 13.7778 89.7198 13.6081 90.1017 13.3676C90.4835 13.1272 90.7876 12.7878 91.0139 12.3494C91.2543 11.911 91.3745 11.3523 91.3745 10.6735C91.3745 10.0937 91.2613 9.61281 91.0351 9.23096C90.8229 8.83498 90.533 8.52384 90.1653 8.29756C89.8117 8.05714 89.4087 7.88743 88.9561 7.78843C88.5036 7.68944 88.051 7.63994 87.5984 7.63994Z" fill="#59606D"/>
<path d="M104.709 14.3223H97.5815V21.1318H95.8207V6.28226H97.5815V12.7524H104.709V6.28226H106.47V21.1318H104.709V14.3223Z" fill="#59606D"/>
<path d="M110.074 6.28226H118.156V7.85207H111.834V12.71H117.626V14.2798H111.834V19.562H118.262V21.1318H110.074V6.28226Z" fill="#59606D"/>
<path d="M131.036 7.85207H126.411V21.1318H124.65V7.85207H120.026V6.28226H131.036V7.85207Z" fill="#59606D"/>
<path d="M130.881 14.2374H136.015V15.8072H130.881V14.2374Z" fill="#59606D"/>
<path d="M150.49 11.1614L150.702 8.93397H150.596L149.79 10.9705L145.929 17.674H145.398L141.304 10.9493L140.541 8.93397H140.434L140.731 11.1402V21.1318H139.077V6.28226H140.392L145.038 13.8768L145.738 15.5314H145.78L146.438 13.8343L150.872 6.28226H152.25V21.1318H150.49V11.1614Z" fill="#59606D"/>
<path d="M162.921 17.0164H157.448L155.963 21.1318H154.224L159.845 6.04891H160.651L166.294 21.1318H164.449L162.921 17.0164ZM158.021 15.489H162.391L160.736 10.9705L160.206 8.72184H160.185L159.654 11.0129L158.021 15.489Z" fill="#59606D"/>
<path d="M176.221 7.85207H170.027V21.1318H168.266V6.28226H176.221V7.85207Z" fill="#59606D"/>
<path d="M183.265 17.0164H177.792L176.307 21.1318H174.567L180.189 6.04891H180.995L186.638 21.1318H184.792L183.265 17.0164ZM178.365 15.489H182.735L181.08 10.9705L180.55 8.72184H180.528L179.998 11.0129L178.365 15.489Z" fill="#59606D"/>
<path d="M189.755 14.1101V12.6252H190.095C190.222 12.6252 190.378 12.6252 190.562 12.6252C190.745 12.6252 190.929 12.6181 191.113 12.6039C191.311 12.5898 191.495 12.5827 191.665 12.5827C191.849 12.5686 191.997 12.5474 192.11 12.5191C192.478 12.4625 192.824 12.3706 193.15 12.2433C193.475 12.1019 193.758 11.9251 193.998 11.713C194.239 11.5008 194.43 11.2533 194.571 10.9705C194.712 10.6876 194.783 10.3765 194.783 10.0371C194.783 9.57038 194.705 9.18147 194.55 8.87033C194.394 8.5592 194.175 8.31171 193.892 8.12785C193.623 7.92986 193.305 7.79551 192.938 7.72479C192.584 7.63994 192.202 7.59751 191.792 7.59751C191.028 7.59751 190.378 7.65408 189.84 7.76722C189.303 7.86622 188.872 7.9935 188.546 8.14907L188.08 6.74896C188.362 6.5934 188.872 6.43783 189.607 6.28226C190.342 6.11255 191.17 6.0277 192.089 6.0277C192.655 6.0277 193.206 6.09134 193.744 6.21862C194.295 6.33176 194.783 6.52975 195.207 6.8126C195.646 7.08131 195.992 7.45609 196.247 7.93693C196.516 8.40363 196.65 8.98347 196.65 9.67645C196.65 10.3836 196.417 11.0624 195.95 11.713C195.483 12.3494 194.783 12.809 193.85 13.0919V13.1767C194.854 13.3181 195.646 13.6929 196.226 14.301C196.805 14.9092 197.095 15.7224 197.095 16.7406C197.095 17.5467 196.933 18.2468 196.607 18.8408C196.296 19.4206 195.879 19.9015 195.356 20.2833C194.847 20.6651 194.253 20.948 193.574 21.1318C192.909 21.3016 192.23 21.3864 191.537 21.3864C190.604 21.3864 189.833 21.3298 189.225 21.2167C188.631 21.1177 188.136 20.9904 187.74 20.8349L188.186 19.2438C188.511 19.3994 188.963 19.5337 189.543 19.6469C190.137 19.76 190.852 19.8166 191.686 19.8166C192.124 19.8166 192.556 19.76 192.98 19.6469C193.404 19.5196 193.779 19.3358 194.104 19.0953C194.444 18.8408 194.712 18.5296 194.91 18.1619C195.123 17.7942 195.229 17.3558 195.229 16.8467C195.229 15.9557 194.917 15.3052 194.295 14.895C193.673 14.4707 192.86 14.2233 191.856 14.1525C191.686 14.1384 191.523 14.1313 191.368 14.1313C191.226 14.1172 191.078 14.1101 190.922 14.1101H189.755Z" fill="#59606D"/>
<path d="M209.166 11.0766L209.294 9.37946H209.209L208.297 11.119L201.126 21.1318H200.087V6.28226H201.848V16.4648L201.699 18.1407H201.784L202.717 16.4012L209.888 6.28226H210.927V21.1318H209.166V11.0766Z" fill="#59606D"/>
<path d="M223.415 14.3223H216.287V21.1318H214.526V6.28226H216.287V12.7524H223.415V6.28226H225.176V21.1318H223.415V14.3223Z" fill="#59606D"/>
<path d="M34.1223 15.8642V11.2952H38.0625L34.8628 15.8642H34.1223Z" fill="#F93737"/>
<path d="M39.823 15.8782H37.2241L39.823 12.2314V15.8782Z" fill="#F93737"/>
</svg>
