<svg width="30" height="29" viewBox="0 0 30 29" fill="none" xmlns="http://www.w3.org/2000/svg">
<path d="M22.157 0.773402C21.7393 0.355686 21.062 0.355686 20.6443 0.773402L13.8372 7.58049C13.4195 7.9982 13.4195 8.67546 13.8372 9.09317C14.255 9.51089 14.9322 9.51089 15.3499 9.09317L21.4007 3.04243L27.4514 9.09317C27.8691 9.51089 28.5464 9.51089 28.9641 9.09317C29.3818 8.67546 29.3818 7.9982 28.9641 7.58049L22.157 0.773402ZM22.4703 27.4184L22.4703 1.52975L20.331 1.52975L20.331 27.4184L22.4703 27.4184Z" fill="#959DAD"/>
<path d="M7.75285 28.1747C8.17057 28.5924 8.84782 28.5924 9.26554 28.1747L16.0726 21.3676C16.4903 20.9499 16.4903 20.2727 16.0726 19.855C15.6549 19.4372 14.9777 19.4372 14.5599 19.855L8.50919 25.9057L2.45845 19.855C2.04073 19.4372 1.36348 19.4372 0.945764 19.855C0.528048 20.2727 0.528048 20.9499 0.945764 21.3676L7.75285 28.1747ZM7.43956 1.52974L7.43956 27.4184L9.57882 27.4184L9.57882 1.52974L7.43956 1.52974Z" fill="#959DAD"/>
</svg>
