<svg width="14" height="15" viewBox="0 0 14 15" fill="none" xmlns="http://www.w3.org/2000/svg">
<path d="M6.94859 0.877258C7.18647 0.877258 7.40374 1.0123 7.50903 1.22562L9.295 4.8438L13.289 5.42758C13.5243 5.46198 13.7198 5.62698 13.7931 5.85324C13.8665 6.07949 13.8051 6.32778 13.6347 6.49373L10.7452 9.30811L11.4271 13.2841C11.4673 13.5186 11.3709 13.7556 11.1784 13.8954C10.9859 14.0352 10.7308 14.0537 10.5202 13.9429L6.94859 12.0647L3.377 13.9429C3.16642 14.0537 2.91124 14.0352 2.71875 13.8954C2.52627 13.7556 2.42987 13.5186 2.47008 13.2841L3.15201 9.30811L0.262505 6.49373C0.0921191 6.32778 0.0306986 6.07949 0.10406 5.85324C0.177421 5.62698 0.372846 5.46198 0.608196 5.42758L4.60217 4.8438L6.38815 1.22562C6.49344 1.0123 6.7107 0.877258 6.94859 0.877258Z" fill="#F2C94C"/>
</svg>
